<svg width="22" height="19" viewBox="0 0 22 19" fill="none" xmlns="http://www.w3.org/2000/svg">
<g clip-path="url(#clip0_19_51)">
<path d="M11 0C8.08328 0 5.28344 1.00151 3.22266 2.78246C1.15975 4.56412 0.000571433 6.98039 0 9.5C0 12.0185 1.16016 14.4366 3.22266 16.2175C5.28344 17.9985 8.08328 19 11 19C13.9167 19 16.7166 17.9985 18.7773 16.2175C20.8398 14.4366 22 12.0185 22 9.5C22 6.98146 20.8398 4.56341 18.7773 2.78246C16.7166 1.00151 13.9167 0 11 0Z" fill="url(#paint0_linear_19_51)"/>
<path d="M4.97921 9.39966C8.1864 8.19316 10.3245 7.39768 11.3936 7.01338C14.4495 5.91598 15.0837 5.72539 15.498 5.71893C15.5891 5.71767 15.7919 5.73711 15.9242 5.82951C16.0342 5.90744 16.0651 6.01283 16.0806 6.08683C16.0944 6.16075 16.1133 6.32923 16.0978 6.46074C15.9328 7.96293 15.2161 11.6083 14.8517 13.2908C14.6987 14.0027 14.3945 14.2414 14.1006 14.2647C13.4612 14.3155 12.9766 13.9001 12.3578 13.55C11.3901 13.0018 10.8436 12.6607 9.90343 12.1259C8.81718 11.5078 9.52187 11.168 10.1406 10.6128C10.3022 10.4675 13.1175 8.25654 13.1708 8.056C13.1776 8.03092 13.1845 7.9374 13.1192 7.88812C13.0556 7.83869 12.9611 7.85561 12.8923 7.86897C12.7944 7.88797 11.2492 8.77088 8.25171 10.5175C7.81343 10.7779 7.4164 10.9048 7.0589 10.8981C6.66702 10.8909 5.91077 10.7064 5.34874 10.5487C4.66124 10.3553 4.11296 10.253 4.16109 9.92453C4.18515 9.75353 4.45843 9.57853 4.97921 9.39966Z" fill="white"/>
</g>
<defs>
<linearGradient id="paint0_linear_19_51" x1="11" y1="0" x2="11" y2="19" gradientUnits="userSpaceOnUse">
<stop stop-color="#2AABEE"/>
<stop offset="1" stop-color="#229ED9"/>
</linearGradient>
<clipPath id="clip0_19_51">
<rect width="22" height="19" fill="white"/>
</clipPath>
</defs>
</svg>
